<?xml version="1.0" encoding="utf-8"?>
<!-- Generator: Adobe Illustrator 28.1.0, SVG Export Plug-In . SVG Version: 6.00 Build 0)  -->
<svg version="1.1" id="Layer_1" xmlns="http://www.w3.org/2000/svg" xmlns:xlink="http://www.w3.org/1999/xlink" x="0px" y="0px"
	 viewBox="0 0 523.33 49.87" style="enable-background:new 0 0 523.33 49.87;" xml:space="preserve">
<style type="text/css">
	.st0{fill:#333333;}
	.st1{fill:#DDDDD0;}
	.st2{fill:#036667;}
	.st3{fill:#E55430;}
</style>
<g>
	<path class="st0" d="M192.26,47.55h-8.71V2.27h8.71V47.55z"/>
	<path class="st0" d="M257.56,7.99l-20.55,39.56h-9.18l25.13-45.28h9.31l26.66,45.28h-9.77L257.56,7.99z"/>
	<path class="st0" d="M366.7,7.6h-21.61v39.96h-8.71V7.6c0,0-11.64,0-15.43,0c-3.79,0-6.05-5.39-6.05-5.39h51.8V7.6z"/>
	<path class="st0" d="M446.61,7.62h-21.61v39.96h-8.71V7.62c0,0-11.64,0-15.43,0c-3.79,0-6.05-5.39-6.05-5.39h51.8V7.62z"/>
	<path class="st0" d="M490.9,47.55h-8.71V2.27h8.71V47.55z"/>
	<path class="st0" d="M151.66,47.55H97.33V41.9l5.66-4.78l15.09-12.7l3.06-2.46l16.82-14.29c0,0-24.6,0-29.79,0
		c-5.18,0-7.12-5.39-7.12-5.39h46.88v5.65l-21.21,17.89c0,0-2.99,2.49-2.99,2.52l-16.43,13.9c0,0,31.39-0.06,36.9-0.06
		C149.73,42.16,151.66,47.55,151.66,47.55z"/>
	<path class="st0" d="M523.33,47.55h-8.71v-8.31h8.71V47.55z"/>
</g>
<g>
	<polygon class="st1" points="49.87,0 33.25,0 0,33.25 0,49.87 16.62,49.87 49.87,16.62 	"/>
	<polygon class="st2" points="0,0 0,24.94 24.94,0 	"/>
	<polygon class="st3" points="49.87,24.94 24.94,49.87 49.87,49.87 	"/>
</g>
</svg>
